<svg width="200" height="200" viewBox="0 0 200 200" fill="none" xmlns="http://www.w3.org/2000/svg">
<rect width="200" height="200" rx="25" fill="black"/>
<rect x="26.3553" y="65" width="50" height="10" transform="rotate(45 26.3553 65)" fill="#D9D9D9"/>
<rect x="19.2843" y="128.64" width="50" height="10" transform="rotate(-45 19.2843 128.64)" fill="#D9D9D9"/>
<path d="M84.752 135V76.056H66.416V64.92H115.184V76.056H96.848V135H84.752ZM152.875 135.96C148.523 135.96 145.067 134.744 142.507 132.312C139.947 129.816 138.667 126.424 138.667 122.136L141.355 124.92H138.667V135H126.955V64.92H138.955V79.704L138.571 92.28H141.355L138.667 95.064C138.667 90.776 139.947 87.416 142.507 84.984C145.067 82.488 148.523 81.24 152.875 81.24C158.187 81.24 162.443 83.064 165.643 86.712C168.843 90.36 170.443 95.288 170.443 101.496V115.8C170.443 121.944 168.843 126.84 165.643 130.488C162.443 134.136 158.187 135.96 152.875 135.96ZM148.651 125.592C151.723 125.592 154.123 124.696 155.851 122.904C157.579 121.112 158.443 118.552 158.443 115.224V101.976C158.443 98.648 157.579 96.088 155.851 94.296C154.123 92.504 151.723 91.608 148.651 91.608C145.643 91.608 143.275 92.536 141.547 94.392C139.819 96.184 138.955 98.712 138.955 101.976V115.224C138.955 118.488 139.819 121.048 141.547 122.904C143.275 124.696 145.643 125.592 148.651 125.592Z" fill="#D9D9D9"/>
</svg>
